<svg xmlns="http://www.w3.org/2000/svg" viewBox="0 0 512 512"><circle cx="256" cy="256" r="256" style="fill:#ef4881"/><circle cx="256" cy="256" r="230" style="fill:#9ccc4f"/><path d="M247 377.74c0-5 9-18 9-18s9 13 9 18a9 9 0 0 1-18 0zM247 134.26c0 5 9 18 9 18s9-13 9-18a9 9 0 0 0-18 0zM377.74 265c-5 0-18-9-18-9s13-9 18-9a9 9 0 0 1 0 18zM134.26 265c5 0 18-9 18-9s-13-9-18-9a9 9 0 1 0 0 18zM163.56 335.72c3.51-3.51 19.08-6.36 19.08-6.36s-2.85 15.57-6.36 19.08a9 9 0 1 1-12.72-12.72zM335.72 163.56c-3.51 3.51-6.36 19.08-6.36 19.08s15.57-2.85 19.08-6.36a9 9 0 1 0-12.72-12.72zM335.72 348.44c-3.51-3.51-6.36-19.08-6.36-19.08s15.57 2.85 19.08 6.36a9 9 0 1 1-12.72 12.72zM163.56 176.28c3.51 3.51 19.08 6.36 19.08 6.36s-2.85-15.57-6.36-19.08a9 9 0 0 0-12.72 12.72zM295.84 371.39c-2-4.57 1.15-20.09 1.15-20.09s13.42 8.41 15.38 13a9 9 0 0 1-16.53 7.11zM199.63 147.72c2 4.57 15.38 13 15.38 13s3.11-15.52 1.15-20.09a9 9 0 1 0-16.53 7.11zM371.39 216.16c-4.57 2-20.09-1.15-20.09-1.15s8.41-13.42 13-15.38a9 9 0 0 1 7.11 16.53zM147.72 312.37c4.57-2 13-15.38 13-15.38s-15.52-3.11-20.09-1.15a9 9 0 1 0 7.11 16.53zM202.58 365.76c1.84-4.61 15-13.39 15-13.39s3.54 15.44 1.7 20.05a9 9 0 0 1-16.72-6.66zM292.7 139.58c-1.84 4.61 1.7 20 1.7 20s13.18-8.78 15-13.39a9 9 0 0 0-16.72-6.66zM365.76 309.42c-4.61-1.84-13.39-15-13.39-15s15.44-3.54 20.05-1.7a9 9 0 0 1-6.66 16.72zM139.58 219.3c4.61 1.84 20-1.7 20-1.7s-8.78-13.18-13.39-15a9 9 0 1 0-6.66 16.72z"/><circle cx="256" cy="256" r="96.05" style="fill:#91c83e"/><circle cx="256" cy="256" r="80" style="fill:#f6f0c9"/><path d="M375.23 422.86a5 5 0 0 0-7-1.33 199.75 199.75 0 0 1-33.35 18.29 5 5 0 0 0 3.94 9.2 211.41 211.41 0 0 0 21.66-10.84l.27-.16.14-.08.14-.08.55-.32 2.45-1.45H364.78a.1.1 0 0 1 .05 0 .09.09 0 0 0 .05 0H365.33l.1-.07h.05l.08-.05h.06l.11-.07.12-.07H366.02a.1.1 0 0 0 .05 0H366.77a.1.1 0 0 1 .05 0H367.47l.13-.08q1.83-1.18 3.63-2.41a5 5 0 0 0 4-10.48zm15.69-12.42a5 5 0 0 0-7.05-.65l-.37.3a5 5 0 0 0 3.2 8.86 4.93 4.93 0 0 0 3.18-1.16l.28-.22.07-.06a5 5 0 0 0 .69-7.07zM429 366.16a4.92 4.92 0 0 0-2.78-.86 5 5 0 0 0-4.16 2.21 201.16 201.16 0 0 1-24.13 29.41A5 5 0 0 0 405 404q3.18-3.23 6.23-6.56l.06-.06v-.05l.05-.05V397.13l.05-.05v-.2h.05v-.05l.06-.06.05-.05h.05q6.53-7.31 12.36-15.19c.07-.08.13-.17.19-.25v-.25a.13.13 0 0 0 0-.05v-.36a.21.21 0 0 0 0-.06v-.22a.13.13 0 0 1 0-.06l.08-.12v-.24l.27-.39c.68-1 1.34-1.94 2-2.93a5 5 0 0 0 2.5-10.44z"/><path d="M70 222.85a8.35 8.35 0 0 1-1.71-.18 8.55 8.55 0 0 1-6.69-10.1c5.63-27.72 18.23-54.76 36.45-78.2a200.31 200.31 0 0 1 66.45-55.22 8.57 8.57 0 0 1 7.79 15.27c-47.64 24.32-83.63 70.9-93.92 121.58a8.58 8.58 0 0 1-8.37 6.85z" style="fill:#fff;opacity:.3"/><g data-name="Black outlines - to remove"><path d="M256 36a219.2 219.2 0 1 1-85.63 17.28A218.8 218.8 0 0 1 256 36m0-10C129 26 26 129 26 256s103 230 230 230 230-103 230-230S383 26 256 26z" style="fill:#010101"/></g></svg>